# xmcd
#
# Track frame offsets:
#	150
#	17882
#	35436
#	49761
#	68210
#	85985
#	105347
#	127516
#	143088
#	158128
#	178372
#	202807
#	226681
#	249501
#
# Disc length: 3524 seconds
#
# Revision: 0
# Processed by: cddbd v1.5.2PL0 Copyright (c) Steve Scherf et al.
# Submitted via: dBpowerAMP V4.0
#
DISCID=ac0dc20e
DTITLE=Ronan Keating - Ronan
DYEAR=1900
DGENRE=
TTITLE0=01 Life Is A Rollercoaster
TTITLE1=02 The Way You Make Me Feel
TTITLE2=03 In This Life
TTITLE3=04 Heal Me
TTITLE4=05 Keep On Walking
TTITLE5=06 When You Say Nothing At All
TTITLE6=07 Brighter Days
TTITLE7=08 If You Love Me
TTITLE8=09 If I Don't Tell You Now
TTITLE9=10 Only For You
TTITLE10=11 Addicted
TTITLE11=12 When The World Was Mine
TTITLE12=13 Believe
TTITLE13=14 Lovin' Each Day
EXTD=
EXTT0=
EXTT1=
EXTT2=
EXTT3=
EXTT4=
EXTT5=
EXTT6=
EXTT7=
EXTT8=
EXTT9=
EXTT10=
EXTT11=
EXTT12=
EXTT13=
PLAYORDER=
